<svg xmlns="http://www.w3.org/2000/svg" viewBox="0 0 200 240" fill="#020000">
  <defs>
    <filter id="glow">
      <feGaussianBlur stdDeviation="3.5" result="coloredBlur"/>
      <feMerge>
        <feMergeNode in="coloredBlur"/>
        <feMergeNode in="SourceGraphic"/>
      </feMerge>
    </filter>
  </defs>
  <path d="M 80 15 
           C 65 18, 55 25, 55 40 
           C 53 50, 52 55, 48 60 
           C 44 65, 38 68, 38 72 
           C 38 75, 42 77, 45 78 
           C 43 80, 42 82, 44 84 
           C 46 86, 48 86, 47 88 
           C 45 90, 45 93, 48 95 
           C 52 98, 55 100, 54 105 
           C 52 110, 50 115, 55 120 
           C 62 126, 68 130, 70 140 
           C 72 150, 68 160, 65 170 
           C 60 180, 40 190, 20 200 
           L 20 240 
           L 180 240 
           C 160 200, 135 180, 130 160 
           C 125 140, 120 120, 125 105 
           C 130 90, 135 80, 145 75 
           C 160 75, 175 65, 170 50 
           C 165 35, 150 25, 140 35 
           C 135 25, 125 15, 110 12 
           C 100 10, 90 12, 80 15 Z" 
        stroke="#ff2a2a" stroke-width="1.5" filter="url(#glow)"/>
</svg>
